<svg version="1.1" xmlns="http://www.w3.org/2000/svg" xmlns:xlink="http://www.w3.org/1999/xlink" width="746.419921875" height="536"><defs/><g><g transform="translate(-22,-46) scale(1,1)"><rect fill="#C0C0C0" stroke="none" x="151" y="63" width="82.80000000000001" height="15" opacity="0.2"/></g><g transform="translate(-22,-46) scale(1,1)"><rect fill="#C0C0C0" stroke="none" x="151" y="77" width="207" height="410" opacity="0.2"/></g><g transform="translate(-22,-46) scale(1,1)"><rect fill="#ffdf82" stroke="none" x="144" y="71" width="207" height="409"/></g><g transform="translate(-22,-46) scale(1,1)"><path fill="none" stroke="#000000" d="M 144 71 L 351 71 L 351 480 L 144 480 L 144 71 Z Z" stroke-miterlimit="10"/></g><g transform="translate(-22,-46) scale(1,1)"><rect fill="#ffdf82" stroke="none" x="144" y="56" width="82.80000000000001" height="15"/></g><g transform="translate(-22,-46) scale(1,1)"><path fill="none" stroke="#000000" d="M 144 56 L 226.8 56 L 226.8 71 L 144 71 L 144 56 Z Z" stroke-miterlimit="10"/></g><g transform="translate(-22,-46) scale(1,1)"><rect fill="#ffdf82" stroke="none" x="144" y="70" width="207" height="410"/></g><g transform="translate(-22,-46) scale(1,1)"><path fill="none" stroke="#000000" d="M 144 70 L 351 70 L 351 480 L 144 480 L 144 70 Z Z" stroke-miterlimit="10"/></g><g transform="translate(-22,-46) scale(1,1)"><g><path fill="none" stroke="none"/><text fill="#000000" stroke="none" font-family="Arial" font-size="13px" font-style="normal" font-weight="bold" text-decoration="none" x="235.944091796875" y="89">GUI</text></g></g><g transform="translate(-22,-46) scale(1,1)"><rect fill="#C0C0C0" stroke="none" x="383" y="63" width="112" height="15" opacity="0.2"/></g><g transform="translate(-22,-46) scale(1,1)"><rect fill="#C0C0C0" stroke="none" x="383" y="77" width="280" height="410" opacity="0.2"/></g><g transform="translate(-22,-46) scale(1,1)"><rect fill="#ffdf82" stroke="none" x="376" y="71" width="280" height="409"/></g><g transform="translate(-22,-46) scale(1,1)"><path fill="none" stroke="#000000" d="M 376 71 L 656 71 L 656 480 L 376 480 L 376 71 Z Z" stroke-miterlimit="10"/></g><g transform="translate(-22,-46) scale(1,1)"><rect fill="#ffdf82" stroke="none" x="376" y="56" width="112" height="15"/></g><g transform="translate(-22,-46) scale(1,1)"><path fill="none" stroke="#000000" d="M 376 56 L 488 56 L 488 71 L 376 71 L 376 56 Z Z" stroke-miterlimit="10"/></g><g transform="translate(-22,-46) scale(1,1)"><rect fill="#ffdf82" stroke="none" x="376" y="70" width="280" height="410"/></g><g transform="translate(-22,-46) scale(1,1)"><path fill="none" stroke="#000000" d="M 376 70 L 656 70 L 656 480 L 376 480 L 376 70 Z Z" stroke-miterlimit="10"/></g><g transform="translate(-22,-46) scale(1,1)"><g><path fill="none" stroke="none"/><text fill="#000000" stroke="none" font-family="Arial" font-size="13px" font-style="normal" font-weight="bold" text-decoration="none" x="501.911376953125" y="89">Data</text></g></g><g transform="translate(-22,-46) scale(1,1)"><rect fill="#C0C0C0" stroke="none" x="39" y="143" width="55.2490234375" height="44" opacity="0.2"/></g><g transform="translate(-22,-46) scale(1,1)"><rect fill="#ffffff" stroke="none" x="32" y="136" width="55.2490234375" height="44"/></g><g transform="translate(-22,-46) scale(1,1)"><path fill="none" stroke="#000000" d="M 32 136 L 87.2490234375 136 L 87.2490234375 180 L 32 180 L 32 136 Z Z" stroke-miterlimit="10"/></g><g transform="translate(-22,-46) scale(1,1)"><path fill="none" stroke="#000000" d="M 32 161 L 87.2490234375 161" stroke-miterlimit="10"/></g><g transform="translate(-22,-46) scale(1,1)"><path fill="none" stroke="#000000" d="M 32 171 L 87.2490234375 171" stroke-miterlimit="10"/></g><g transform="translate(-22,-46) scale(1,1)"><g><path fill="none" stroke="none"/><text fill="#000000" stroke="none" font-family="Arial" font-size="13px" font-style="normal" font-weight="bold" text-decoration="none" x="36.5" y="154">JFrame</text></g></g><g transform="translate(-22,-46) scale(1,1)"><rect fill="#C0C0C0" stroke="none" x="39" y="295" width="50.919921875" height="44" opacity="0.2"/></g><g transform="translate(-22,-46) scale(1,1)"><rect fill="#ffffff" stroke="none" x="32" y="288" width="50.919921875" height="44"/></g><g transform="translate(-22,-46) scale(1,1)"><path fill="none" stroke="#000000" d="M 32 288 L 82.919921875 288 L 82.919921875 332 L 32 332 L 32 288 Z Z" stroke-miterlimit="10"/></g><g transform="translate(-22,-46) scale(1,1)"><path fill="none" stroke="#000000" d="M 32 313 L 82.919921875 313" stroke-miterlimit="10"/></g><g transform="translate(-22,-46) scale(1,1)"><path fill="none" stroke="#000000" d="M 32 323 L 82.919921875 323" stroke-miterlimit="10"/></g><g transform="translate(-22,-46) scale(1,1)"><g><path fill="none" stroke="none"/><text fill="#000000" stroke="none" font-family="Arial" font-size="13px" font-style="normal" font-weight="bold" text-decoration="none" x="36.503173828125" y="306">JPanel</text></g></g><g transform="translate(-22,-46) scale(1,1)"><path fill="#C0C0C0" stroke="none" d="M 78.7099609375 434.5 C 78.7099609375 428.1487248 83.8586857375 423 90.2099609375 423 C 96.5612361375 423 101.7099609375 428.1487248 101.7099609375 434.5 C 101.7099609375 440.8512752 96.5612361375 446 90.2099609375 446 C 83.8586857375 446 78.7099609375 440.8512752 78.7099609375 434.5 Z" opacity="0.2"/></g><g transform="translate(-22,-46) scale(1,1)"><path fill="#ffffff" stroke="none" d="M 71.7099609375 427.5 C 71.7099609375 421.1487248 76.8586857375 416 83.2099609375 416 C 89.5612361375 416 94.7099609375 421.1487248 94.7099609375 427.5 C 94.7099609375 433.8512752 89.5612361375 439 83.2099609375 439 C 76.8586857375 439 71.7099609375 433.8512752 71.7099609375 427.5 Z"/></g><g transform="translate(-22,-46) scale(1,1)"><path fill="none" stroke="#000000" d="M 71.7099609375 427.5 C 71.7099609375 421.1487248 76.8586857375 416 83.2099609375 416 C 89.5612361375 416 94.7099609375 421.1487248 94.7099609375 427.5 C 94.7099609375 433.8512752 89.5612361375 439 83.2099609375 439 C 76.8586857375 439 71.7099609375 433.8512752 71.7099609375 427.5 Z" stroke-miterlimit="10"/></g><g transform="translate(-22,-46) scale(1,1)"><g><path fill="none" stroke="none"/><text fill="#000000" stroke="none" font-family="Arial" font-size="13px" font-style="normal" font-weight="bold" text-decoration="none" x="61.5390625" y="457">Thread</text></g></g><g transform="translate(-22,-46) scale(1,1)"><rect fill="#C0C0C0" stroke="none" x="175" y="135" width="119.93798828125" height="57" opacity="0.2"/></g><g transform="translate(-22,-46) scale(1,1)"><rect fill="#ffffff" stroke="none" x="168" y="128" width="119.93798828125" height="57"/></g><g transform="translate(-22,-46) scale(1,1)"><path fill="none" stroke="#000000" d="M 168 128 L 287.93798828125 128 L 287.93798828125 185 L 168 185 L 168 128 Z Z" stroke-miterlimit="10"/></g><g transform="translate(-22,-46) scale(1,1)"><path fill="none" stroke="#000000" d="M 168 153 L 287.93798828125 153" stroke-miterlimit="10"/></g><g transform="translate(-22,-46) scale(1,1)"><path fill="none" stroke="#000000" d="M 168 163 L 287.93798828125 163" stroke-miterlimit="10"/></g><g transform="translate(-22,-46) scale(1,1)"><g><path fill="none" stroke="none"/><text fill="#000000" stroke="none" font-family="Arial" font-size="13px" font-style="normal" font-weight="bold" text-decoration="none" x="203.041748046875" y="146">Ventana</text></g></g><g transform="translate(-22,-46) scale(1,1)"><g><path fill="none" stroke="none"/><text fill="#000000" stroke="none" font-family="Arial" font-size="13px" font-style="normal" font-weight="normal" text-decoration="none" x="173" y="179">+ponPanel(JPanel)</text></g></g><g transform="translate(-22,-46) scale(1,1)"><rect fill="#C0C0C0" stroke="none" x="183" y="271" width="114.52978515625" height="115" opacity="0.2"/></g><g transform="translate(-22,-46) scale(1,1)"><rect fill="#ffffff" stroke="none" x="176" y="264" width="114.52978515625" height="115"/></g><g transform="translate(-22,-46) scale(1,1)"><path fill="none" stroke="#000000" d="M 176 264 L 290.52978515625 264 L 290.52978515625 379 L 176 379 L 176 264 Z Z" stroke-miterlimit="10"/></g><g transform="translate(-22,-46) scale(1,1)"><path fill="none" stroke="#000000" d="M 176 289 L 290.52978515625 289" stroke-miterlimit="10"/></g><g transform="translate(-22,-46) scale(1,1)"><path fill="none" stroke="#000000" d="M 176 342 L 290.52978515625 342" stroke-miterlimit="10"/></g><g transform="translate(-22,-46) scale(1,1)"><g><path fill="none" stroke="none"/><text fill="#000000" stroke="none" font-family="Arial" font-size="13px" font-style="normal" font-weight="bold" text-decoration="none" x="182.6962890625" y="282">PanelAnimacion</text></g></g><g transform="translate(-22,-46) scale(1,1)"><g><path fill="none" stroke="none"/><text fill="#000000" stroke="none" font-family="Arial" font-size="13px" font-style="normal" font-weight="normal" text-decoration="none" x="181" y="305">-app: App</text></g></g><g transform="translate(-22,-46) scale(1,1)"><g><path fill="none" stroke="none"/><text fill="#000000" stroke="none" font-family="Arial" font-size="13px" font-style="normal" font-weight="normal" text-decoration="none" x="181" y="320">-ventana: Ventana</text></g></g><g transform="translate(-22,-46) scale(1,1)"><g><path fill="none" stroke="none"/><text fill="#000000" stroke="none" font-family="Arial" font-size="13px" font-style="normal" font-weight="normal" text-decoration="none" x="181" y="335">-fin: boolean</text></g></g><g transform="translate(-22,-46) scale(1,1)"><g><path fill="none" stroke="none"/><text fill="#000000" stroke="none" font-family="Arial" font-size="13px" font-style="normal" font-weight="normal" text-decoration="none" x="181" y="358">+run()</text></g></g><g transform="translate(-22,-46) scale(1,1)"><g><path fill="none" stroke="none"/><text fill="#000000" stroke="none" font-family="Arial" font-size="13px" font-style="normal" font-weight="normal" text-decoration="none" x="181" y="373">+finalizar()</text></g></g><g transform="translate(-22,-46) scale(1,1)"><path fill="none" stroke="#000000" d="M 167 157 L 88 158" stroke-miterlimit="10"/></g><g transform="translate(-22,-46) scale(1,1)"><path fill="#FFFFFF" stroke="none" d="M 108.21716000517632 149.324376603085 L 88 158 L 108.4302830709729 166.16109880101436"/></g><g transform="translate(-22,-46) scale(1,1)"><path fill="none" stroke="#000000" d="M 108.21716000517632 149.324376603085 L 88 158 L 108.4302830709729 166.16109880101436 L 108.21716000517632 149.324376603085" stroke-miterlimit="10"/></g><g transform="translate(-22,-46) scale(1,1)"><path fill="none" stroke="#000000" d="M 175 317 L 84 312" stroke-miterlimit="10"/></g><g transform="translate(-22,-46) scale(1,1)"><path fill="#FFFFFF" stroke="none" d="M 104.7566259936154 304.7087396589362 L 84 312 L 103.83285062520115 321.5214513640757"/></g><g transform="translate(-22,-46) scale(1,1)"><path fill="none" stroke="#000000" d="M 104.7566259936154 304.7087396589362 L 84 312 L 103.83285062520115 321.5214513640757 L 104.7566259936154 304.7087396589362" stroke-miterlimit="10"/></g><g transform="translate(-22,-46) scale(1,1)"><path fill="none" stroke="#000000" d="M 175 367 L 94.7099609375 422.6087646484375" stroke-miterlimit="10"/></g><g transform="translate(-22,-46) scale(1,1)"><path fill="none" stroke="#000000" d="M 228 186 L 231 263" stroke-miterlimit="10"/></g><g transform="translate(-22,-46) scale(1,1)"><path fill="#000000" stroke="none" d="M 226.39802536101809 253.00891250052493 L 231 263 L 234.81067824823432 252.68114680362038 L 230.14350695853528 241.01667860240582"/></g><g transform="translate(-22,-46) scale(1,1)"><path fill="none" stroke="#000000" d="M 226.39802536101809 253.00891250052493 L 231 263 L 234.81067824823432 252.68114680362038 L 230.14350695853528 241.01667860240582 L 226.39802536101809 253.00891250052493" stroke-miterlimit="10"/></g><g transform="translate(-22,-46) scale(1,1)"><rect fill="#C0C0C0" stroke="none" x="431" y="135" width="223.6142578125" height="87" opacity="0.2"/></g><g transform="translate(-22,-46) scale(1,1)"><rect fill="#ffffff" stroke="none" x="424" y="128" width="223.6142578125" height="87"/></g><g transform="translate(-22,-46) scale(1,1)"><path fill="none" stroke="#000000" d="M 424 128 L 647.6142578125 128 L 647.6142578125 215 L 424 215 L 424 128 Z Z" stroke-miterlimit="10"/></g><g transform="translate(-22,-46) scale(1,1)"><path fill="none" stroke="#000000" d="M 424 153 L 647.6142578125 153" stroke-miterlimit="10"/></g><g transform="translate(-22,-46) scale(1,1)"><path fill="none" stroke="#000000" d="M 424 206 L 647.6142578125 206" stroke-miterlimit="10"/></g><g transform="translate(-22,-46) scale(1,1)"><g><path fill="none" stroke="none"/><text fill="#000000" stroke="none" font-family="Arial" font-size="13px" font-style="normal" font-weight="bold" text-decoration="none" x="523.172119140625" y="146">App</text></g></g><g transform="translate(-22,-46) scale(1,1)"><g><path fill="none" stroke="none"/><text fill="#000000" stroke="none" font-family="Arial" font-size="13px" font-style="normal" font-weight="normal" text-decoration="none" x="429" y="169">-v: Ventana</text></g></g><g transform="translate(-22,-46) scale(1,1)"><g><path fill="none" stroke="none"/><text fill="#000000" stroke="none" font-family="Arial" font-size="13px" font-style="normal" font-weight="normal" text-decoration="none" x="429" y="184">-imagenRebote: ImagenRebote</text></g></g><g transform="translate(-22,-46) scale(1,1)"><g><path fill="none" stroke="none"/><text fill="#000000" stroke="none" font-family="Arial" font-size="13px" font-style="normal" font-weight="normal" text-decoration="none" x="429" y="199">-imagenObstaculo: ImagenObstaculo</text></g></g><g transform="translate(-22,-46) scale(1,1)"><path fill="#C0C0C0" stroke="none" d="M 718.7099609375 122.5 C 718.7099609375 116.1487248 723.8586857375 111 730.2099609375 111 C 736.5612361375 111 741.7099609375 116.1487248 741.7099609375 122.5 C 741.7099609375 128.8512752 736.5612361375 134 730.2099609375 134 C 723.8586857375 134 718.7099609375 128.8512752 718.7099609375 122.5 Z" opacity="0.2"/></g><g transform="translate(-22,-46) scale(1,1)"><path fill="#ffffff" stroke="none" d="M 711.7099609375 115.5 C 711.7099609375 109.1487248 716.8586857375 104 723.2099609375 104 C 729.5612361375 104 734.7099609375 109.1487248 734.7099609375 115.5 C 734.7099609375 121.8512752 729.5612361375 127 723.2099609375 127 C 716.8586857375 127 711.7099609375 121.8512752 711.7099609375 115.5 Z"/></g><g transform="translate(-22,-46) scale(1,1)"><path fill="none" stroke="#000000" d="M 711.7099609375 115.5 C 711.7099609375 109.1487248 716.8586857375 104 723.2099609375 104 C 729.5612361375 104 734.7099609375 109.1487248 734.7099609375 115.5 C 734.7099609375 121.8512752 729.5612361375 127 723.2099609375 127 C 716.8586857375 127 711.7099609375 121.8512752 711.7099609375 115.5 Z" stroke-miterlimit="10"/></g><g transform="translate(-22,-46) scale(1,1)"><g><path fill="none" stroke="none"/><text fill="#000000" stroke="none" font-family="Arial" font-size="13px" font-style="normal" font-weight="bold" text-decoration="none" x="701.5390625" y="145">Thread</text></g></g><g transform="translate(-22,-46) scale(1,1)"><path fill="none" stroke="#000000" d="M 649 145 L 711.7099609375 121.58585611979167" stroke-miterlimit="10"/></g><g transform="translate(-22,-46) scale(1,1)"><rect fill="#C0C0C0" stroke="none" x="487" y="535" width="71.130859375" height="44" opacity="0.2"/></g><g transform="translate(-22,-46) scale(1,1)"><rect fill="#ffffff" stroke="none" x="480" y="528" width="71.130859375" height="44"/></g><g transform="translate(-22,-46) scale(1,1)"><path fill="none" stroke="#000000" d="M 480 528 L 551.130859375 528 L 551.130859375 572 L 480 572 L 480 528 Z Z" stroke-miterlimit="10"/></g><g transform="translate(-22,-46) scale(1,1)"><path fill="none" stroke="#000000" d="M 480 553 L 551.130859375 553" stroke-miterlimit="10"/></g><g transform="translate(-22,-46) scale(1,1)"><path fill="none" stroke="#000000" d="M 480 563 L 551.130859375 563" stroke-miterlimit="10"/></g><g transform="translate(-22,-46) scale(1,1)"><g><path fill="none" stroke="none"/><text fill="#000000" stroke="none" font-family="Arial" font-size="13px" font-style="normal" font-weight="bold" text-decoration="none" x="484.5" y="546">Rectangle</text></g></g><g transform="translate(-22,-46) scale(1,1)"><path fill="none" stroke="#000000" d="M 456 383 L 507 527" stroke-miterlimit="10"/></g><g transform="translate(-22,-46) scale(1,1)"><path fill="#FFFFFF" stroke="none" d="M 492.278427999202 510.651442943632 L 507 527 L 508.15045216568274 505.0301010513367"/></g><g transform="translate(-22,-46) scale(1,1)"><path fill="none" stroke="#000000" d="M 492.278427999202 510.651442943632 L 507 527 L 508.15045216568274 505.0301010513367 L 492.278427999202 510.651442943632" stroke-miterlimit="10"/></g><g transform="translate(-22,-46) scale(1,1)"><path fill="none" stroke="#000000" d="M 559 443 L 524 527" stroke-miterlimit="10"/></g><g transform="translate(-22,-46) scale(1,1)"><path fill="#FFFFFF" stroke="none" d="M 524.0460248024506 505.0000481428354 L 524 527 L 539.5888595938942 511.47622930593695"/></g><g transform="translate(-22,-46) scale(1,1)"><path fill="none" stroke="#000000" d="M 524.0460248024506 505.0000481428354 L 524 527 L 539.5888595938942 511.47622930593695 L 524.0460248024506 505.0000481428354" stroke-miterlimit="10"/></g><g transform="translate(-22,-46) scale(1,1)"><rect fill="#C0C0C0" stroke="none" x="391" y="319" width="118.078125" height="70" opacity="0.2"/></g><g transform="translate(-22,-46) scale(1,1)"><rect fill="#ffffff" stroke="none" x="384" y="312" width="118.078125" height="70"/></g><g transform="translate(-22,-46) scale(1,1)"><path fill="none" stroke="#000000" d="M 384 312 L 502.078125 312 L 502.078125 382 L 384 382 L 384 312 Z Z" stroke-miterlimit="10"/></g><g transform="translate(-22,-46) scale(1,1)"><path fill="none" stroke="#000000" d="M 384 337 L 502.078125 337" stroke-miterlimit="10"/></g><g transform="translate(-22,-46) scale(1,1)"><path fill="none" stroke="#000000" d="M 384 360 L 502.078125 360" stroke-miterlimit="10"/></g><g transform="translate(-22,-46) scale(1,1)"><g><path fill="none" stroke="none"/><text fill="#000000" stroke="none" font-family="Arial" font-size="13px" font-style="normal" font-weight="bold" text-decoration="none" x="388.5" y="330">ImagenObstaculo</text></g></g><g transform="translate(-22,-46) scale(1,1)"><g><path fill="none" stroke="none"/><text fill="#000000" stroke="none" font-family="Arial" font-size="13px" font-style="normal" font-weight="normal" text-decoration="none" x="389" y="353">-image: Imagen</text></g></g><g transform="translate(-22,-46) scale(1,1)"><g><path fill="none" stroke="none"/><text fill="#000000" stroke="none" font-family="Arial" font-size="13px" font-style="normal" font-weight="normal" text-decoration="none" x="389" y="376">+pintar(Graphics)</text></g></g><g transform="translate(-22,-46) scale(1,1)"><rect fill="#C0C0C0" stroke="none" x="535" y="319" width="116.9990234375" height="130" opacity="0.2"/></g><g transform="translate(-22,-46) scale(1,1)"><rect fill="#ffffff" stroke="none" x="528" y="312" width="116.9990234375" height="130"/></g><g transform="translate(-22,-46) scale(1,1)"><path fill="none" stroke="#000000" d="M 528 312 L 644.9990234375 312 L 644.9990234375 442 L 528 442 L 528 312 Z Z" stroke-miterlimit="10"/></g><g transform="translate(-22,-46) scale(1,1)"><path fill="none" stroke="#000000" d="M 528 337 L 644.9990234375 337" stroke-miterlimit="10"/></g><g transform="translate(-22,-46) scale(1,1)"><path fill="none" stroke="#000000" d="M 528 390 L 644.9990234375 390" stroke-miterlimit="10"/></g><g transform="translate(-22,-46) scale(1,1)"><g><path fill="none" stroke="none"/><text fill="#000000" stroke="none" font-family="Arial" font-size="13px" font-style="normal" font-weight="bold" text-decoration="none" x="541.713623046875" y="330">ImagenRebote</text></g></g><g transform="translate(-22,-46) scale(1,1)"><g><path fill="none" stroke="none"/><text fill="#000000" stroke="none" font-family="Arial" font-size="13px" font-style="normal" font-weight="normal" text-decoration="none" x="533" y="353">-image: Imagen</text></g></g><g transform="translate(-22,-46) scale(1,1)"><g><path fill="none" stroke="none"/><text fill="#000000" stroke="none" font-family="Arial" font-size="13px" font-style="normal" font-weight="normal" text-decoration="none" x="533" y="368">-direccionX: int</text></g></g><g transform="translate(-22,-46) scale(1,1)"><g><path fill="none" stroke="none"/><text fill="#000000" stroke="none" font-family="Arial" font-size="13px" font-style="normal" font-weight="normal" text-decoration="none" x="533" y="383">-direccionY: int</text></g></g><g transform="translate(-22,-46) scale(1,1)"><g><path fill="none" stroke="none"/><text fill="#000000" stroke="none" font-family="Arial" font-size="13px" font-style="normal" font-weight="normal" text-decoration="none" x="533" y="406">+pintar(Graphics)</text></g></g><g transform="translate(-22,-46) scale(1,1)"><g><path fill="none" stroke="none"/><text fill="#000000" stroke="none" font-family="Arial" font-size="13px" font-style="normal" font-weight="normal" text-decoration="none" x="533" y="421">+mover()</text></g></g><g transform="translate(-22,-46) scale(1,1)"><g><path fill="none" stroke="none"/><text fill="#000000" stroke="none" font-family="Arial" font-size="13px" font-style="normal" font-weight="normal" text-decoration="none" x="533" y="436">+verificarColision()</text></g></g><g transform="translate(-22,-46) scale(1,1)"><path fill="none" stroke="#000000" d="M 462 311 L 511 216" stroke-miterlimit="10"/></g><g transform="translate(-22,-46) scale(1,1)"><path fill="#000000" stroke="none" d="M 510.0825651066492 226.96167474505893 L 511 216 L 502.600201020222 223.10235011100698 L 500.91509872742535 235.55235961009367"/></g><g transform="translate(-22,-46) scale(1,1)"><path fill="none" stroke="#000000" d="M 510.0825651066492 226.96167474505893 L 511 216 L 502.600201020222 223.10235011100698 L 500.91509872742535 235.55235961009367 L 510.0825651066492 226.96167474505893" stroke-miterlimit="10"/></g><g transform="translate(-22,-46) scale(1,1)"><path fill="none" stroke="#000000" d="M 570 311 L 546 216" stroke-miterlimit="10"/></g><g transform="translate(-22,-46) scale(1,1)"><path fill="#000000" stroke="none" d="M 552.5704995931707 224.82204823701076 L 546 216 L 544.4079146857692 226.88417495045954 L 551.3885967853488 237.32986227533897"/></g><g transform="translate(-22,-46) scale(1,1)"><path fill="none" stroke="#000000" d="M 552.5704995931707 224.82204823701076 L 546 216 L 544.4079146857692 226.88417495045954 L 551.3885967853488 237.32986227533897 L 552.5704995931707 224.82204823701076" stroke-miterlimit="10"/></g><g transform="translate(-22,-46) scale(1,1)"><path fill="none" stroke="#000000" d="M 289 159 L 423 166" stroke-miterlimit="10"/></g><g transform="translate(-22,-46) scale(1,1)"><path fill="#000000" stroke="none" d="M 412.6315625001804 169.673622709579 L 423 166 L 413.07076400410443 161.26605106303288 L 401.02995652415626 164.85231116170965"/></g><g transform="translate(-22,-46) scale(1,1)"><path fill="none" stroke="#000000" d="M 412.6315625001804 169.673622709579 L 423 166 L 413.07076400410443 161.26605106303288 L 401.02995652415626 164.85231116170965 L 412.6315625001804 169.673622709579" stroke-miterlimit="10"/></g><g transform="translate(-22,-46) scale(1,1)"><path fill="none" stroke="#000000" d="M 444 216 L 292 292" stroke-miterlimit="10"/></g><g transform="translate(-22,-46) scale(1,1)"><path fill="#000000" stroke="none" d="M 299.2072191549614 283.6900064950472 L 292 292 L 302.97232629693906 291.22022077900255 L 311.67739820199813 282.16130089900093"/></g><g transform="translate(-22,-46) scale(1,1)"><path fill="none" stroke="#000000" d="M 299.2072191549614 283.6900064950472 L 292 292 L 302.97232629693906 291.22022077900255 L 311.67739820199813 282.16130089900093 L 299.2072191549614 283.6900064950472" stroke-miterlimit="10"/></g></g></svg>