<svg version="1.1" xmlns="http://www.w3.org/2000/svg" xmlns:xlink="http://www.w3.org/1999/xlink" width="644" height="444"><defs/><g><g transform="translate(-22,-46) scale(1,1)"><rect fill="#C0C0C0" stroke="none" x="151" y="63" width="82.80000000000001" height="15" opacity="0.2"/></g><g transform="translate(-22,-46) scale(1,1)"><rect fill="#C0C0C0" stroke="none" x="151" y="77" width="207" height="410" opacity="0.2"/></g><g transform="translate(-22,-46) scale(1,1)"><rect fill="#ffdf82" stroke="none" x="144" y="71" width="207" height="409"/></g><g transform="translate(-22,-46) scale(1,1)"><path fill="none" stroke="#000000" d="M 144 71 L 351 71 L 351 480 L 144 480 L 144 71 Z Z" stroke-miterlimit="10"/></g><g transform="translate(-22,-46) scale(1,1)"><rect fill="#ffdf82" stroke="none" x="144" y="56" width="82.80000000000001" height="15"/></g><g transform="translate(-22,-46) scale(1,1)"><path fill="none" stroke="#000000" d="M 144 56 L 226.8 56 L 226.8 71 L 144 71 L 144 56 Z Z" stroke-miterlimit="10"/></g><g transform="translate(-22,-46) scale(1,1)"><rect fill="#ffdf82" stroke="none" x="144" y="70" width="207" height="410"/></g><g transform="translate(-22,-46) scale(1,1)"><path fill="none" stroke="#000000" d="M 144 70 L 351 70 L 351 480 L 144 480 L 144 70 Z Z" stroke-miterlimit="10"/></g><g transform="translate(-22,-46) scale(1,1)"><g><path fill="none" stroke="none"/><text fill="#000000" stroke="none" font-family="Arial" font-size="13px" font-style="normal" font-weight="bold" text-decoration="none" x="235.944091796875" y="89">GUI</text></g></g><g transform="translate(-22,-46) scale(1,1)"><rect fill="#C0C0C0" stroke="none" x="383" y="63" width="112" height="15" opacity="0.2"/></g><g transform="translate(-22,-46) scale(1,1)"><rect fill="#C0C0C0" stroke="none" x="383" y="77" width="280" height="410" opacity="0.2"/></g><g transform="translate(-22,-46) scale(1,1)"><rect fill="#ffdf82" stroke="none" x="376" y="71" width="280" height="409"/></g><g transform="translate(-22,-46) scale(1,1)"><path fill="none" stroke="#000000" d="M 376 71 L 656 71 L 656 480 L 376 480 L 376 71 Z Z" stroke-miterlimit="10"/></g><g transform="translate(-22,-46) scale(1,1)"><rect fill="#ffdf82" stroke="none" x="376" y="56" width="112" height="15"/></g><g transform="translate(-22,-46) scale(1,1)"><path fill="none" stroke="#000000" d="M 376 56 L 488 56 L 488 71 L 376 71 L 376 56 Z Z" stroke-miterlimit="10"/></g><g transform="translate(-22,-46) scale(1,1)"><rect fill="#ffdf82" stroke="none" x="376" y="70" width="280" height="410"/></g><g transform="translate(-22,-46) scale(1,1)"><path fill="none" stroke="#000000" d="M 376 70 L 656 70 L 656 480 L 376 480 L 376 70 Z Z" stroke-miterlimit="10"/></g><g transform="translate(-22,-46) scale(1,1)"><g><path fill="none" stroke="none"/><text fill="#000000" stroke="none" font-family="Arial" font-size="13px" font-style="normal" font-weight="bold" text-decoration="none" x="501.911376953125" y="89">Data</text></g></g><g transform="translate(-22,-46) scale(1,1)"><rect fill="#C0C0C0" stroke="none" x="39" y="143" width="55.2490234375" height="44" opacity="0.2"/></g><g transform="translate(-22,-46) scale(1,1)"><rect fill="#ffffff" stroke="none" x="32" y="136" width="55.2490234375" height="44"/></g><g transform="translate(-22,-46) scale(1,1)"><path fill="none" stroke="#000000" d="M 32 136 L 87.2490234375 136 L 87.2490234375 180 L 32 180 L 32 136 Z Z" stroke-miterlimit="10"/></g><g transform="translate(-22,-46) scale(1,1)"><path fill="none" stroke="#000000" d="M 32 161 L 87.2490234375 161" stroke-miterlimit="10"/></g><g transform="translate(-22,-46) scale(1,1)"><path fill="none" stroke="#000000" d="M 32 171 L 87.2490234375 171" stroke-miterlimit="10"/></g><g transform="translate(-22,-46) scale(1,1)"><g><path fill="none" stroke="none"/><text fill="#000000" stroke="none" font-family="Arial" font-size="13px" font-style="normal" font-weight="bold" text-decoration="none" x="36.5" y="154">JFrame</text></g></g><g transform="translate(-22,-46) scale(1,1)"><rect fill="#C0C0C0" stroke="none" x="39" y="295" width="50.919921875" height="44" opacity="0.2"/></g><g transform="translate(-22,-46) scale(1,1)"><rect fill="#ffffff" stroke="none" x="32" y="288" width="50.919921875" height="44"/></g><g transform="translate(-22,-46) scale(1,1)"><path fill="none" stroke="#000000" d="M 32 288 L 82.919921875 288 L 82.919921875 332 L 32 332 L 32 288 Z Z" stroke-miterlimit="10"/></g><g transform="translate(-22,-46) scale(1,1)"><path fill="none" stroke="#000000" d="M 32 313 L 82.919921875 313" stroke-miterlimit="10"/></g><g transform="translate(-22,-46) scale(1,1)"><path fill="none" stroke="#000000" d="M 32 323 L 82.919921875 323" stroke-miterlimit="10"/></g><g transform="translate(-22,-46) scale(1,1)"><g><path fill="none" stroke="none"/><text fill="#000000" stroke="none" font-family="Arial" font-size="13px" font-style="normal" font-weight="bold" text-decoration="none" x="36.503173828125" y="306">JPanel</text></g></g><g transform="translate(-22,-46) scale(1,1)"><path fill="#C0C0C0" stroke="none" d="M 78.7099609375 434.5 C 78.7099609375 428.1487248 83.8586857375 423 90.2099609375 423 C 96.5612361375 423 101.7099609375 428.1487248 101.7099609375 434.5 C 101.7099609375 440.8512752 96.5612361375 446 90.2099609375 446 C 83.8586857375 446 78.7099609375 440.8512752 78.7099609375 434.5 Z" opacity="0.2"/></g><g transform="translate(-22,-46) scale(1,1)"><path fill="#ffffff" stroke="none" d="M 71.7099609375 427.5 C 71.7099609375 421.1487248 76.8586857375 416 83.2099609375 416 C 89.5612361375 416 94.7099609375 421.1487248 94.7099609375 427.5 C 94.7099609375 433.8512752 89.5612361375 439 83.2099609375 439 C 76.8586857375 439 71.7099609375 433.8512752 71.7099609375 427.5 Z"/></g><g transform="translate(-22,-46) scale(1,1)"><path fill="none" stroke="#000000" d="M 71.7099609375 427.5 C 71.7099609375 421.1487248 76.8586857375 416 83.2099609375 416 C 89.5612361375 416 94.7099609375 421.1487248 94.7099609375 427.5 C 94.7099609375 433.8512752 89.5612361375 439 83.2099609375 439 C 76.8586857375 439 71.7099609375 433.8512752 71.7099609375 427.5 Z" stroke-miterlimit="10"/></g><g transform="translate(-22,-46) scale(1,1)"><g><path fill="none" stroke="none"/><text fill="#000000" stroke="none" font-family="Arial" font-size="13px" font-style="normal" font-weight="bold" text-decoration="none" x="61.5390625" y="457">Thread</text></g></g><g transform="translate(-22,-46) scale(1,1)"><rect fill="#C0C0C0" stroke="none" x="175" y="135" width="119.93798828125" height="57" opacity="0.2"/></g><g transform="translate(-22,-46) scale(1,1)"><rect fill="#ffffff" stroke="none" x="168" y="128" width="119.93798828125" height="57"/></g><g transform="translate(-22,-46) scale(1,1)"><path fill="none" stroke="#000000" d="M 168 128 L 287.93798828125 128 L 287.93798828125 185 L 168 185 L 168 128 Z Z" stroke-miterlimit="10"/></g><g transform="translate(-22,-46) scale(1,1)"><path fill="none" stroke="#000000" d="M 168 153 L 287.93798828125 153" stroke-miterlimit="10"/></g><g transform="translate(-22,-46) scale(1,1)"><path fill="none" stroke="#000000" d="M 168 163 L 287.93798828125 163" stroke-miterlimit="10"/></g><g transform="translate(-22,-46) scale(1,1)"><g><path fill="none" stroke="none"/><text fill="#000000" stroke="none" font-family="Arial" font-size="13px" font-style="normal" font-weight="bold" text-decoration="none" x="203.041748046875" y="146">Ventana</text></g></g><g transform="translate(-22,-46) scale(1,1)"><g><path fill="none" stroke="none"/><text fill="#000000" stroke="none" font-family="Arial" font-size="13px" font-style="normal" font-weight="normal" text-decoration="none" x="173" y="179">+ponPanel(JPanel)</text></g></g><g transform="translate(-22,-46) scale(1,1)"><rect fill="#C0C0C0" stroke="none" x="183" y="271" width="114.52978515625" height="115" opacity="0.2"/></g><g transform="translate(-22,-46) scale(1,1)"><rect fill="#ffffff" stroke="none" x="176" y="264" width="114.52978515625" height="115"/></g><g transform="translate(-22,-46) scale(1,1)"><path fill="none" stroke="#000000" d="M 176 264 L 290.52978515625 264 L 290.52978515625 379 L 176 379 L 176 264 Z Z" stroke-miterlimit="10"/></g><g transform="translate(-22,-46) scale(1,1)"><path fill="none" stroke="#000000" d="M 176 289 L 290.52978515625 289" stroke-miterlimit="10"/></g><g transform="translate(-22,-46) scale(1,1)"><path fill="none" stroke="#000000" d="M 176 342 L 290.52978515625 342" stroke-miterlimit="10"/></g><g transform="translate(-22,-46) scale(1,1)"><g><path fill="none" stroke="none"/><text fill="#000000" stroke="none" font-family="Arial" font-size="13px" font-style="normal" font-weight="bold" text-decoration="none" x="182.6962890625" y="282">PanelAnimacion</text></g></g><g transform="translate(-22,-46) scale(1,1)"><g><path fill="none" stroke="none"/><text fill="#000000" stroke="none" font-family="Arial" font-size="13px" font-style="normal" font-weight="normal" text-decoration="none" x="181" y="305">-robot: Robot</text></g></g><g transform="translate(-22,-46) scale(1,1)"><g><path fill="none" stroke="none"/><text fill="#000000" stroke="none" font-family="Arial" font-size="13px" font-style="normal" font-weight="normal" text-decoration="none" x="181" y="320">-ventana: Ventana</text></g></g><g transform="translate(-22,-46) scale(1,1)"><g><path fill="none" stroke="none"/><text fill="#000000" stroke="none" font-family="Arial" font-size="13px" font-style="normal" font-weight="normal" text-decoration="none" x="181" y="335">-fin: boolean</text></g></g><g transform="translate(-22,-46) scale(1,1)"><g><path fill="none" stroke="none"/><text fill="#000000" stroke="none" font-family="Arial" font-size="13px" font-style="normal" font-weight="normal" text-decoration="none" x="181" y="358">+run()</text></g></g><g transform="translate(-22,-46) scale(1,1)"><g><path fill="none" stroke="none"/><text fill="#000000" stroke="none" font-family="Arial" font-size="13px" font-style="normal" font-weight="normal" text-decoration="none" x="181" y="373">+finalizar()</text></g></g><g transform="translate(-22,-46) scale(1,1)"><rect fill="#C0C0C0" stroke="none" x="423" y="143" width="202.298828125" height="205" opacity="0.2"/></g><g transform="translate(-22,-46) scale(1,1)"><rect fill="#ffffff" stroke="none" x="416" y="136" width="202.298828125" height="205"/></g><g transform="translate(-22,-46) scale(1,1)"><path fill="none" stroke="#000000" d="M 416 136 L 618.298828125 136 L 618.298828125 341 L 416 341 L 416 136 Z Z" stroke-miterlimit="10"/></g><g transform="translate(-22,-46) scale(1,1)"><path fill="none" stroke="#000000" d="M 416 161 L 618.298828125 161" stroke-miterlimit="10"/></g><g transform="translate(-22,-46) scale(1,1)"><path fill="none" stroke="#000000" d="M 416 274 L 618.298828125 274" stroke-miterlimit="10"/></g><g transform="translate(-22,-46) scale(1,1)"><g><path fill="none" stroke="none"/><text fill="#000000" stroke="none" font-family="Arial" font-size="13px" font-style="normal" font-weight="bold" text-decoration="none" x="498.37939453125" y="154">Robot</text></g></g><g transform="translate(-22,-46) scale(1,1)"><g><path fill="none" stroke="none"/><text fill="#000000" stroke="none" font-family="Arial" font-size="13px" font-style="normal" font-weight="normal" text-decoration="none" x="421" y="177">-x: int</text></g></g><g transform="translate(-22,-46) scale(1,1)"><g><path fill="none" stroke="none"/><text fill="#000000" stroke="none" font-family="Arial" font-size="13px" font-style="normal" font-weight="normal" text-decoration="none" x="421" y="192">-y: int</text></g></g><g transform="translate(-22,-46) scale(1,1)"><g><path fill="none" stroke="none"/><text fill="#000000" stroke="none" font-family="Arial" font-size="13px" font-style="normal" font-weight="normal" text-decoration="none" x="421" y="207">-size: int</text></g></g><g transform="translate(-22,-46) scale(1,1)"><g><path fill="none" stroke="none"/><text fill="#000000" stroke="none" font-family="Arial" font-size="13px" font-style="normal" font-weight="normal" text-decoration="none" x="421" y="222">-anguloBrazo: int</text></g></g><g transform="translate(-22,-46) scale(1,1)"><g><path fill="none" stroke="none"/><text fill="#000000" stroke="none" font-family="Arial" font-size="13px" font-style="normal" font-weight="normal" text-decoration="none" x="421" y="237">-anguloPierna: int</text></g></g><g transform="translate(-22,-46) scale(1,1)"><g><path fill="none" stroke="none"/><text fill="#000000" stroke="none" font-family="Arial" font-size="13px" font-style="normal" font-weight="normal" text-decoration="none" x="421" y="252">-brazoDelantero: boolean</text></g></g><g transform="translate(-22,-46) scale(1,1)"><g><path fill="none" stroke="none"/><text fill="#000000" stroke="none" font-family="Arial" font-size="13px" font-style="normal" font-weight="normal" text-decoration="none" x="421" y="267">-piernaDelantera: boolean</text></g></g><g transform="translate(-22,-46) scale(1,1)"><g><path fill="none" stroke="none"/><text fill="#000000" stroke="none" font-family="Arial" font-size="13px" font-style="normal" font-weight="normal" text-decoration="none" x="421" y="290">+pintar(Graphics g)</text></g></g><g transform="translate(-22,-46) scale(1,1)"><g><path fill="none" stroke="none"/><text fill="#000000" stroke="none" font-family="Arial" font-size="13px" font-style="normal" font-weight="normal" text-decoration="none" x="421" y="305">+mover()</text></g></g><g transform="translate(-22,-46) scale(1,1)"><g><path fill="none" stroke="none"/><text fill="#000000" stroke="none" font-family="Arial" font-size="13px" font-style="normal" font-weight="normal" text-decoration="none" x="421" y="320">+moverBrazosYPiernas()</text></g></g><g transform="translate(-22,-46) scale(1,1)"><g><path fill="none" stroke="none"/><text fill="#000000" stroke="none" font-family="Arial" font-size="13px" font-style="normal" font-weight="normal" text-decoration="none" x="421" y="335">+boolean estaFueraDelLImite(int)</text></g></g><g transform="translate(-22,-46) scale(1,1)"><path fill="none" stroke="#000000" d="M 167 157 L 88 158" stroke-miterlimit="10"/></g><g transform="translate(-22,-46) scale(1,1)"><path fill="#FFFFFF" stroke="none" d="M 108.21716000517632 149.324376603085 L 88 158 L 108.4302830709729 166.16109880101436"/></g><g transform="translate(-22,-46) scale(1,1)"><path fill="none" stroke="#000000" d="M 108.21716000517632 149.324376603085 L 88 158 L 108.4302830709729 166.16109880101436 L 108.21716000517632 149.324376603085" stroke-miterlimit="10"/></g><g transform="translate(-22,-46) scale(1,1)"><path fill="none" stroke="#000000" d="M 175 317 L 84 312" stroke-miterlimit="10"/></g><g transform="translate(-22,-46) scale(1,1)"><path fill="#FFFFFF" stroke="none" d="M 104.7566259936154 304.7087396589362 L 84 312 L 103.83285062520115 321.5214513640757"/></g><g transform="translate(-22,-46) scale(1,1)"><path fill="none" stroke="#000000" d="M 104.7566259936154 304.7087396589362 L 84 312 L 103.83285062520115 321.5214513640757 L 104.7566259936154 304.7087396589362" stroke-miterlimit="10"/></g><g transform="translate(-22,-46) scale(1,1)"><path fill="none" stroke="#000000" d="M 175 367 L 94.7099609375 422.6087646484375" stroke-miterlimit="10"/></g><g transform="translate(-22,-46) scale(1,1)"><path fill="none" stroke="#000000" d="M 228 186 L 231 263" stroke-miterlimit="10"/></g><g transform="translate(-22,-46) scale(1,1)"><path fill="#000000" stroke="none" d="M 226.39802536101809 253.00891250052493 L 231 263 L 234.81067824823432 252.68114680362038 L 230.14350695853528 241.01667860240582"/></g><g transform="translate(-22,-46) scale(1,1)"><path fill="none" stroke="#000000" d="M 226.39802536101809 253.00891250052493 L 231 263 L 234.81067824823432 252.68114680362038 L 230.14350695853528 241.01667860240582 L 226.39802536101809 253.00891250052493" stroke-miterlimit="10"/></g><g transform="translate(-22,-46) scale(1,1)"><path fill="none" stroke="#000000" d="M 415 268 L 292 304" stroke-miterlimit="10"/></g><g transform="translate(-22,-46) scale(1,1)"><path fill="#000000" stroke="none" d="M 300.57105092658855 297.1052856466837 L 292 304 L 302.9359475056602 305.1853489585118 L 313.11422295418197 297.8202274280443"/></g><g transform="translate(-22,-46) scale(1,1)"><path fill="none" stroke="#000000" d="M 300.57105092658855 297.1052856466837 L 292 304 L 302.9359475056602 305.1853489585118 L 313.11422295418197 297.8202274280443 L 300.57105092658855 297.1052856466837" stroke-miterlimit="10"/></g></g></svg>