<svg version="1.1" xmlns="http://www.w3.org/2000/svg" xmlns:xlink="http://www.w3.org/1999/xlink" width="860" height="674"><defs/><g><g transform="translate(-6,-22) scale(1,1)"><rect fill="#C0C0C0" stroke="none" x="95" y="111" width="150.4" height="15" opacity="0.2"/></g><g transform="translate(-6,-22) scale(1,1)"><rect fill="#C0C0C0" stroke="none" x="95" y="125" width="376" height="418" opacity="0.2"/></g><g transform="translate(-6,-22) scale(1,1)"><rect fill="#ffeaad" stroke="none" x="88" y="119" width="376" height="417"/></g><g transform="translate(-6,-22) scale(1,1)"><path fill="none" stroke="#000000" d="M 88 119 L 464 119 L 464 536 L 88 536 L 88 119 Z Z" stroke-miterlimit="10"/></g><g transform="translate(-6,-22) scale(1,1)"><rect fill="#ffeaad" stroke="none" x="88" y="104" width="150.4" height="15"/></g><g transform="translate(-6,-22) scale(1,1)"><path fill="none" stroke="#000000" d="M 88 104 L 238.4 104 L 238.4 119 L 88 119 L 88 104 Z Z" stroke-miterlimit="10"/></g><g transform="translate(-6,-22) scale(1,1)"><rect fill="#ffeaad" stroke="none" x="88" y="118" width="376" height="418"/></g><g transform="translate(-6,-22) scale(1,1)"><path fill="none" stroke="#000000" d="M 88 118 L 464 118 L 464 536 L 88 536 L 88 118 Z Z" stroke-miterlimit="10"/></g><g transform="translate(-6,-22) scale(1,1)"><g><path fill="none" stroke="none"/><text fill="#000000" stroke="none" font-family="Arial" font-size="13px" font-style="normal" font-weight="bold" text-decoration="none" x="264.444091796875" y="137">GUI</text></g></g><g transform="translate(-6,-22) scale(1,1)"><rect fill="#C0C0C0" stroke="none" x="487" y="111" width="150.39999999999998" height="15" opacity="0.2"/></g><g transform="translate(-6,-22) scale(1,1)"><rect fill="#C0C0C0" stroke="none" x="487" y="125" width="376" height="418" opacity="0.2"/></g><g transform="translate(-6,-22) scale(1,1)"><rect fill="#ffeaad" stroke="none" x="480" y="119" width="376" height="417"/></g><g transform="translate(-6,-22) scale(1,1)"><path fill="none" stroke="#000000" d="M 480 119 L 856 119 L 856 536 L 480 536 L 480 119 Z Z" stroke-miterlimit="10"/></g><g transform="translate(-6,-22) scale(1,1)"><rect fill="#ffeaad" stroke="none" x="480" y="104" width="150.39999999999998" height="15"/></g><g transform="translate(-6,-22) scale(1,1)"><path fill="none" stroke="#000000" d="M 480 104 L 630.4 104 L 630.4 119 L 480 119 L 480 104 Z Z" stroke-miterlimit="10"/></g><g transform="translate(-6,-22) scale(1,1)"><rect fill="#ffeaad" stroke="none" x="480" y="118" width="376" height="418"/></g><g transform="translate(-6,-22) scale(1,1)"><path fill="none" stroke="#000000" d="M 480 118 L 856 118 L 856 536 L 480 536 L 480 118 Z Z" stroke-miterlimit="10"/></g><g transform="translate(-6,-22) scale(1,1)"><g><path fill="none" stroke="none"/><text fill="#000000" stroke="none" font-family="Arial" font-size="13px" font-style="normal" font-weight="bold" text-decoration="none" x="653.911376953125" y="137">Data</text></g></g><g transform="translate(-6,-22) scale(1,1)"><rect fill="#C0C0C0" stroke="none" x="159" y="295" width="210.26513671875" height="72" opacity="0.2"/></g><g transform="translate(-6,-22) scale(1,1)"><rect fill="#ffffff" stroke="none" x="152" y="288" width="210.26513671875" height="72"/></g><g transform="translate(-6,-22) scale(1,1)"><path fill="none" stroke="#000000" d="M 152 288 L 362.26513671875 288 L 362.26513671875 360 L 152 360 L 152 288 Z Z" stroke-miterlimit="10"/></g><g transform="translate(-6,-22) scale(1,1)"><path fill="none" stroke="#000000" d="M 152 313 L 362.26513671875 313" stroke-miterlimit="10"/></g><g transform="translate(-6,-22) scale(1,1)"><path fill="none" stroke="#000000" d="M 152 351 L 362.26513671875 351" stroke-miterlimit="10"/></g><g transform="translate(-6,-22) scale(1,1)"><g><path fill="none" stroke="none"/><text fill="#000000" stroke="none" font-family="Arial" font-size="13px" font-style="normal" font-weight="bold" text-decoration="none" x="212.337158203125" y="306">PanelPrincipal</text></g></g><g transform="translate(-6,-22) scale(1,1)"><g><path fill="none" stroke="none"/><text fill="#000000" stroke="none" font-family="Arial" font-size="13px" font-style="normal" font-weight="normal" text-decoration="none" x="157" y="329">-app: App</text></g></g><g transform="translate(-6,-22) scale(1,1)"><g><path fill="none" stroke="none"/><text fill="#000000" stroke="none" font-family="Arial" font-size="13px" font-style="normal" font-weight="normal" text-decoration="none" x="157" y="344">-panelAnimacion: PanelAnimacion</text></g></g><g transform="translate(-6,-22) scale(1,1)"><rect fill="#C0C0C0" stroke="none" x="583" y="183" width="162.181640625" height="115" opacity="0.2"/></g><g transform="translate(-6,-22) scale(1,1)"><rect fill="#ffffff" stroke="none" x="576" y="176" width="162.181640625" height="115"/></g><g transform="translate(-6,-22) scale(1,1)"><path fill="none" stroke="#000000" d="M 576 176 L 738.181640625 176 L 738.181640625 291 L 576 291 L 576 176 Z Z" stroke-miterlimit="10"/></g><g transform="translate(-6,-22) scale(1,1)"><path fill="none" stroke="#000000" d="M 576 201 L 738.181640625 201" stroke-miterlimit="10"/></g><g transform="translate(-6,-22) scale(1,1)"><path fill="none" stroke="#000000" d="M 576 254 L 738.181640625 254" stroke-miterlimit="10"/></g><g transform="translate(-6,-22) scale(1,1)"><g><path fill="none" stroke="none"/><text fill="#000000" stroke="none" font-family="Arial" font-size="13px" font-style="normal" font-weight="bold" text-decoration="none" x="644.455810546875" y="194">App</text></g></g><g transform="translate(-6,-22) scale(1,1)"><g><path fill="none" stroke="none"/><text fill="#000000" stroke="none" font-family="Arial" font-size="13px" font-style="normal" font-weight="normal" text-decoration="none" x="581" y="217">-particulas: List&lt;Particula&gt;</text></g></g><g transform="translate(-6,-22) scale(1,1)"><g><path fill="none" stroke="none"/><text fill="#000000" stroke="none" font-family="Arial" font-size="13px" font-style="normal" font-weight="normal" text-decoration="none" x="581" y="232">-tarro: Tarro</text></g></g><g transform="translate(-6,-22) scale(1,1)"><g><path fill="none" stroke="none"/><text fill="#000000" stroke="none" font-family="Arial" font-size="13px" font-style="normal" font-weight="normal" text-decoration="none" x="581" y="247">-v: Ventana</text></g></g><g transform="translate(-6,-22) scale(1,1)"><g><path fill="none" stroke="none"/><text fill="#000000" stroke="none" font-family="Arial" font-size="13px" font-style="normal" font-weight="normal" text-decoration="none" x="581" y="270">+run()</text></g></g><g transform="translate(-6,-22) scale(1,1)"><g><path fill="none" stroke="none"/><text fill="#000000" stroke="none" font-family="Arial" font-size="13px" font-style="normal" font-weight="normal" text-decoration="none" x="581" y="285">+generarParticulas()</text></g></g><g transform="translate(-6,-22) scale(1,1)"><rect fill="#C0C0C0" stroke="none" x="503" y="391" width="109.7880859375" height="57" opacity="0.2"/></g><g transform="translate(-6,-22) scale(1,1)"><rect fill="#ffffff" stroke="none" x="496" y="384" width="109.7880859375" height="57"/></g><g transform="translate(-6,-22) scale(1,1)"><path fill="none" stroke="#000000" d="M 496 384 L 605.7880859375 384 L 605.7880859375 441 L 496 441 L 496 384 Z Z" stroke-miterlimit="10"/></g><g transform="translate(-6,-22) scale(1,1)"><path fill="none" stroke="#000000" d="M 496 409 L 605.7880859375 409" stroke-miterlimit="10"/></g><g transform="translate(-6,-22) scale(1,1)"><path fill="none" stroke="#000000" d="M 496 419 L 605.7880859375 419" stroke-miterlimit="10"/></g><g transform="translate(-6,-22) scale(1,1)"><g><path fill="none" stroke="none"/><text fill="#000000" stroke="none" font-family="Arial" font-size="13px" font-style="normal" font-weight="bold" text-decoration="none" x="534.761474609375" y="402">Tarro</text></g></g><g transform="translate(-6,-22) scale(1,1)"><g><path fill="none" stroke="none"/><text fill="#000000" stroke="none" font-family="Arial" font-size="13px" font-style="normal" font-weight="normal" text-decoration="none" x="501" y="435">+pintar(Graphics)</text></g></g><g transform="translate(-6,-22) scale(1,1)"><rect fill="#C0C0C0" stroke="none" x="647" y="375" width="176.99072265625" height="130" opacity="0.2"/></g><g transform="translate(-6,-22) scale(1,1)"><rect fill="#ffffff" stroke="none" x="640" y="368" width="176.99072265625" height="130"/></g><g transform="translate(-6,-22) scale(1,1)"><path fill="none" stroke="#000000" d="M 640 368 L 816.99072265625 368 L 816.99072265625 498 L 640 498 L 640 368 Z Z" stroke-miterlimit="10"/></g><g transform="translate(-6,-22) scale(1,1)"><path fill="none" stroke="#000000" d="M 640 393 L 816.99072265625 393" stroke-miterlimit="10"/></g><g transform="translate(-6,-22) scale(1,1)"><path fill="none" stroke="#000000" d="M 640 446 L 816.99072265625 446" stroke-miterlimit="10"/></g><g transform="translate(-6,-22) scale(1,1)"><g><path fill="none" stroke="none"/><text fill="#000000" stroke="none" font-family="Arial" font-size="13px" font-style="normal" font-weight="bold" text-decoration="none" x="701.03857421875" y="386">Particula</text></g></g><g transform="translate(-6,-22) scale(1,1)"><g><path fill="none" stroke="none"/><text fill="#000000" stroke="none" font-family="Arial" font-size="13px" font-style="normal" font-weight="normal" text-decoration="none" x="645" y="409">-color: Color</text></g></g><g transform="translate(-6,-22) scale(1,1)"><g><path fill="none" stroke="none"/><text fill="#000000" stroke="none" font-family="Arial" font-size="13px" font-style="normal" font-weight="normal" text-decoration="none" x="645" y="424">-direccionX: int</text></g></g><g transform="translate(-6,-22) scale(1,1)"><g><path fill="none" stroke="none"/><text fill="#000000" stroke="none" font-family="Arial" font-size="13px" font-style="normal" font-weight="normal" text-decoration="none" x="645" y="439">-direccionY: int</text></g></g><g transform="translate(-6,-22) scale(1,1)"><g><path fill="none" stroke="none"/><text fill="#000000" stroke="none" font-family="Arial" font-size="13px" font-style="normal" font-weight="normal" text-decoration="none" x="645" y="462">+mover()</text></g></g><g transform="translate(-6,-22) scale(1,1)"><g><path fill="none" stroke="none"/><text fill="#000000" stroke="none" font-family="Arial" font-size="13px" font-style="normal" font-weight="normal" text-decoration="none" x="645" y="477">+pintar(Graphics)</text></g></g><g transform="translate(-6,-22) scale(1,1)"><g><path fill="none" stroke="none"/><text fill="#000000" stroke="none" font-family="Arial" font-size="13px" font-style="normal" font-weight="normal" text-decoration="none" x="645" y="492">+VerificarColision(Particula)</text></g></g><g transform="translate(-6,-22) scale(1,1)"><rect fill="#C0C0C0" stroke="none" x="607" y="591" width="72.96533203125" height="102" opacity="0.2"/></g><g transform="translate(-6,-22) scale(1,1)"><rect fill="#ffffff" stroke="none" x="600" y="584" width="72.96533203125" height="102"/></g><g transform="translate(-6,-22) scale(1,1)"><path fill="none" stroke="#000000" d="M 600 584 L 672.96533203125 584 L 672.96533203125 686 L 600 686 L 600 584 Z Z" stroke-miterlimit="10"/></g><g transform="translate(-6,-22) scale(1,1)"><path fill="none" stroke="#000000" d="M 600 609 L 672.96533203125 609" stroke-miterlimit="10"/></g><g transform="translate(-6,-22) scale(1,1)"><path fill="none" stroke="#000000" d="M 600 677 L 672.96533203125 677" stroke-miterlimit="10"/></g><g transform="translate(-6,-22) scale(1,1)"><g><path fill="none" stroke="none"/><text fill="#000000" stroke="none" font-family="Arial" font-size="13px" font-style="normal" font-weight="bold" text-decoration="none" x="605.417236328125" y="602">Rectangle</text></g></g><g transform="translate(-6,-22) scale(1,1)"><g><path fill="none" stroke="none"/><text fill="#000000" stroke="none" font-family="Arial" font-size="13px" font-style="normal" font-weight="normal" text-decoration="none" x="605" y="625">+x: int</text></g></g><g transform="translate(-6,-22) scale(1,1)"><g><path fill="none" stroke="none"/><text fill="#000000" stroke="none" font-family="Arial" font-size="13px" font-style="normal" font-weight="normal" text-decoration="none" x="605" y="640">+y: int</text></g></g><g transform="translate(-6,-22) scale(1,1)"><g><path fill="none" stroke="none"/><text fill="#000000" stroke="none" font-family="Arial" font-size="13px" font-style="normal" font-weight="normal" text-decoration="none" x="605" y="655">+width: int</text></g></g><g transform="translate(-6,-22) scale(1,1)"><g><path fill="none" stroke="none"/><text fill="#000000" stroke="none" font-family="Arial" font-size="13px" font-style="normal" font-weight="normal" text-decoration="none" x="605" y="670">+height: int</text></g></g><g transform="translate(-6,-22) scale(1,1)"><path fill="none" stroke="#000000" d="M 698 499 L 660 583" stroke-miterlimit="10"/></g><g transform="translate(-6,-22) scale(1,1)"><path fill="#FFFFFF" stroke="none" d="M 660.7068061385311 561.0113569067454 L 660 583 L 676.0481060538707 567.9514687732085"/></g><g transform="translate(-6,-22) scale(1,1)"><path fill="none" stroke="#000000" d="M 660.7068061385311 561.0113569067454 L 660 583 L 676.0481060538707 567.9514687732085 L 660.7068061385311 561.0113569067454" stroke-miterlimit="10"/></g><g transform="translate(-6,-22) scale(1,1)"><path fill="none" stroke="#000000" d="M 562 442 L 616 583" stroke-miterlimit="10"/></g><g transform="translate(-6,-22) scale(1,1)"><path fill="#FFFFFF" stroke="none" d="M 600.8685210758284 567.0300799761756 L 616 583 L 616.59286738719 561.0079898994838"/></g><g transform="translate(-6,-22) scale(1,1)"><path fill="none" stroke="#000000" d="M 600.8685210758284 567.0300799761756 L 616 583 L 616.59286738719 561.0079898994838 L 600.8685210758284 567.0300799761756" stroke-miterlimit="10"/></g><g transform="translate(-6,-22) scale(1,1)"><rect fill="#C0C0C0" stroke="none" x="111" y="39" width="55.2490234375" height="44" opacity="0.2"/></g><g transform="translate(-6,-22) scale(1,1)"><rect fill="#ffffff" stroke="none" x="104" y="32" width="55.2490234375" height="44"/></g><g transform="translate(-6,-22) scale(1,1)"><path fill="none" stroke="#000000" d="M 104 32 L 159.2490234375 32 L 159.2490234375 76 L 104 76 L 104 32 Z Z" stroke-miterlimit="10"/></g><g transform="translate(-6,-22) scale(1,1)"><path fill="none" stroke="#000000" d="M 104 57 L 159.2490234375 57" stroke-miterlimit="10"/></g><g transform="translate(-6,-22) scale(1,1)"><path fill="none" stroke="#000000" d="M 104 67 L 159.2490234375 67" stroke-miterlimit="10"/></g><g transform="translate(-6,-22) scale(1,1)"><g><path fill="none" stroke="none"/><text fill="#000000" stroke="none" font-family="Arial" font-size="13px" font-style="normal" font-weight="bold" text-decoration="none" x="108.5" y="50">JFrame</text></g></g><g transform="translate(-6,-22) scale(1,1)"><path fill="none" stroke="#000000" d="M 205 175 L 145 77" stroke-miterlimit="10"/></g><g transform="translate(-6,-22) scale(1,1)"><path fill="#FFFFFF" stroke="none" d="M 162.79314521782067 89.93846912341432 L 145 77 L 148.43277438681895 98.73053289749701"/></g><g transform="translate(-6,-22) scale(1,1)"><path fill="none" stroke="#000000" d="M 162.79314521782067 89.93846912341432 L 145 77 L 148.43277438681895 98.73053289749701 L 162.79314521782067 89.93846912341432" stroke-miterlimit="10"/></g><g transform="translate(-6,-22) scale(1,1)"><path fill="none" stroke="#000000" d="M 151 329 L 68 333" stroke-miterlimit="10"/></g><g transform="translate(-6,-22) scale(1,1)"><path fill="#FFFFFF" stroke="none" d="M 87.89652119939684 323.61232487982505 L 68 333 L 88.70705379916737 340.4308763250634"/></g><g transform="translate(-6,-22) scale(1,1)"><path fill="none" stroke="#000000" d="M 87.89652119939684 323.61232487982505 L 68 333 L 88.70705379916737 340.4308763250634 L 87.89652119939684 323.61232487982505" stroke-miterlimit="10"/></g><g transform="translate(-6,-22) scale(1,1)"><path fill="none" stroke="#000000" d="M 255 427 L 68 346" stroke-miterlimit="10"/></g><g transform="translate(-6,-22) scale(1,1)"><path fill="#FFFFFF" stroke="none" d="M 89.99716337312584 346.35327543929725 L 68 346 L 83.30453992925187 361.8041468467594"/></g><g transform="translate(-6,-22) scale(1,1)"><path fill="none" stroke="#000000" d="M 89.99716337312584 346.35327543929725 L 68 346 L 83.30453992925187 361.8041468467594 L 89.99716337312584 346.35327543929725" stroke-miterlimit="10"/></g><g transform="translate(-6,-22) scale(1,1)"><rect fill="#C0C0C0" stroke="none" x="263" y="415" width="140.50439453125" height="100" opacity="0.2"/></g><g transform="translate(-6,-22) scale(1,1)"><rect fill="#ffffff" stroke="none" x="256" y="408" width="140.50439453125" height="100"/></g><g transform="translate(-6,-22) scale(1,1)"><path fill="none" stroke="#000000" d="M 256 408 L 396.50439453125 408 L 396.50439453125 508 L 256 508 L 256 408 Z Z" stroke-miterlimit="10"/></g><g transform="translate(-6,-22) scale(1,1)"><path fill="none" stroke="#000000" d="M 256 433 L 396.50439453125 433" stroke-miterlimit="10"/></g><g transform="translate(-6,-22) scale(1,1)"><path fill="none" stroke="#000000" d="M 256 471 L 396.50439453125 471" stroke-miterlimit="10"/></g><g transform="translate(-6,-22) scale(1,1)"><g><path fill="none" stroke="none"/><text fill="#000000" stroke="none" font-family="Arial" font-size="13px" font-style="normal" font-weight="bold" text-decoration="none" x="275.68359375" y="426">PanelAnimacion</text></g></g><g transform="translate(-6,-22) scale(1,1)"><g><path fill="none" stroke="none"/><text fill="#000000" stroke="none" font-family="Arial" font-size="13px" font-style="normal" font-weight="normal" text-decoration="none" x="261" y="449">-app: App</text></g></g><g transform="translate(-6,-22) scale(1,1)"><g><path fill="none" stroke="none"/><text fill="#000000" stroke="none" font-family="Arial" font-size="13px" font-style="normal" font-weight="normal" text-decoration="none" x="261" y="464">-animacion: Animacion</text></g></g><g transform="translate(-6,-22) scale(1,1)"><g><path fill="none" stroke="none"/><text fill="#000000" stroke="none" font-family="Arial" font-size="13px" font-style="normal" font-weight="normal" text-decoration="none" x="261" y="487">+iniciarAnimacion()</text></g></g><g transform="translate(-6,-22) scale(1,1)"><g><path fill="none" stroke="none"/><text fill="#000000" stroke="none" font-family="Arial" font-size="13px" font-style="normal" font-weight="normal" text-decoration="none" x="261" y="502">+finalizarAnimacion()</text></g></g><g transform="translate(-6,-22) scale(1,1)"><path fill="none" stroke="#000000" d="M 300 407 L 276 361" stroke-miterlimit="10"/></g><g transform="translate(-6,-22) scale(1,1)"><path fill="#000000" stroke="none" d="M 284.4330025783793 368.06289370676416 L 276 361 L 276.9688132740829 371.95725334378835 L 286.17645214729043 380.50486661564"/></g><g transform="translate(-6,-22) scale(1,1)"><path fill="none" stroke="#000000" d="M 284.4330025783793 368.06289370676416 L 276 361 L 276.9688132740829 371.95725334378835 L 286.17645214729043 380.50486661564 L 284.4330025783793 368.06289370676416" stroke-miterlimit="10"/></g><g transform="translate(-6,-22) scale(1,1)"><path fill="none" stroke="#000000" d="M 247 287 L 237 249" stroke-miterlimit="10"/></g><g transform="translate(-6,-22) scale(1,1)"><path fill="#000000" stroke="none" d="M 243.6572500900211 257.75677002318287 L 237 249 L 235.515415218025 259.8993581473924 L 242.59885258415216 270.27563981977823"/></g><g transform="translate(-6,-22) scale(1,1)"><path fill="none" stroke="#000000" d="M 243.6572500900211 257.75677002318287 L 237 249 L 235.515415218025 259.8993581473924 L 242.59885258415216 270.27563981977823 L 243.6572500900211 257.75677002318287" stroke-miterlimit="10"/></g><g transform="translate(-6,-22) scale(1,1)"><path fill="none" stroke="#000000" d="M 567 383 L 622 292" stroke-miterlimit="10"/></g><g transform="translate(-6,-22) scale(1,1)"><path fill="#000000" stroke="none" d="M 620.3458898025949 302.8749215838479 L 622 292 L 613.1406366657743 298.52009825939587 L 610.6202982513822 310.8282338022584"/></g><g transform="translate(-6,-22) scale(1,1)"><path fill="none" stroke="#000000" d="M 620.3458898025949 302.8749215838479 L 622 292 L 613.1406366657743 298.52009825939587 L 610.6202982513822 310.8282338022584 L 620.3458898025949 302.8749215838479" stroke-miterlimit="10"/></g><g transform="translate(-6,-22) scale(1,1)"><path fill="none" stroke="#000000" d="M 705 367 L 678 292" stroke-miterlimit="10"/></g><g transform="translate(-6,-22) scale(1,1)"><path fill="#000000" stroke="none" d="M 685.4029780906766 300.13608722845095 L 678 292 L 677.4816135573299 302.9877784604558 L 685.4518283020003 312.699523061112"/></g><g transform="translate(-6,-22) scale(1,1)"><path fill="none" stroke="#000000" d="M 685.4029780906766 300.13608722845095 L 678 292 L 677.4816135573299 302.9877784604558 L 685.4518283020003 312.699523061112 L 685.4029780906766 300.13608722845095" stroke-miterlimit="10"/></g><g transform="translate(-6,-22) scale(1,1)"><g><path fill="none" stroke="none"/><text fill="#000000" stroke="none" font-family="Arial" font-size="13px" font-style="normal" font-weight="normal" text-decoration="none" x="699.5" y="347">1..*</text></g></g><g transform="translate(-6,-22) scale(1,1)"><rect fill="#C0C0C0" stroke="none" x="103" y="407" width="89.57080078125" height="85" opacity="0.2"/></g><g transform="translate(-6,-22) scale(1,1)"><rect fill="#ffffff" stroke="none" x="96" y="400" width="89.57080078125" height="85"/></g><g transform="translate(-6,-22) scale(1,1)"><path fill="none" stroke="#000000" d="M 96 400 L 185.57080078125 400 L 185.57080078125 485 L 96 485 L 96 400 Z Z" stroke-miterlimit="10"/></g><g transform="translate(-6,-22) scale(1,1)"><path fill="none" stroke="#000000" d="M 96 425 L 185.57080078125 425" stroke-miterlimit="10"/></g><g transform="translate(-6,-22) scale(1,1)"><path fill="none" stroke="#000000" d="M 96 448 L 185.57080078125 448" stroke-miterlimit="10"/></g><g transform="translate(-6,-22) scale(1,1)"><g><path fill="none" stroke="none"/><text fill="#000000" stroke="none" font-family="Arial" font-size="13px" font-style="normal" font-weight="bold" text-decoration="none" x="107.55859375" y="418">Animacion</text></g></g><g transform="translate(-6,-22) scale(1,1)"><g><path fill="none" stroke="none"/><text fill="#000000" stroke="none" font-family="Arial" font-size="13px" font-style="normal" font-weight="normal" text-decoration="none" x="101" y="441">-fin: boolean</text></g></g><g transform="translate(-6,-22) scale(1,1)"><g><path fill="none" stroke="none"/><text fill="#000000" stroke="none" font-family="Arial" font-size="13px" font-style="normal" font-weight="normal" text-decoration="none" x="101" y="464">+run()</text></g></g><g transform="translate(-6,-22) scale(1,1)"><g><path fill="none" stroke="none"/><text fill="#000000" stroke="none" font-family="Arial" font-size="13px" font-style="normal" font-weight="normal" text-decoration="none" x="101" y="479">+finalizar()</text></g></g><g transform="translate(-6,-22) scale(1,1)"><path fill="#C0C0C0" stroke="none" d="M 46.7099609375 578.5 C 46.7099609375 572.1487248 51.8586857375 567 58.2099609375 567 C 64.5612361375 567 69.7099609375 572.1487248 69.7099609375 578.5 C 69.7099609375 584.8512752 64.5612361375 590 58.2099609375 590 C 51.8586857375 590 46.7099609375 584.8512752 46.7099609375 578.5 Z" opacity="0.2"/></g><g transform="translate(-6,-22) scale(1,1)"><path fill="#ffffff" stroke="none" d="M 39.7099609375 571.5 C 39.7099609375 565.1487248 44.8586857375 560 51.2099609375 560 C 57.5612361375 560 62.7099609375 565.1487248 62.7099609375 571.5 C 62.7099609375 577.8512752 57.5612361375 583 51.2099609375 583 C 44.8586857375 583 39.7099609375 577.8512752 39.7099609375 571.5 Z"/></g><g transform="translate(-6,-22) scale(1,1)"><path fill="none" stroke="#000000" d="M 39.7099609375 571.5 C 39.7099609375 565.1487248 44.8586857375 560 51.2099609375 560 C 57.5612361375 560 62.7099609375 565.1487248 62.7099609375 571.5 C 62.7099609375 577.8512752 57.5612361375 583 51.2099609375 583 C 44.8586857375 583 39.7099609375 577.8512752 39.7099609375 571.5 Z" stroke-miterlimit="10"/></g><g transform="translate(-6,-22) scale(1,1)"><g><path fill="none" stroke="none"/><text fill="#000000" stroke="none" font-family="Arial" font-size="13px" font-style="normal" font-weight="bold" text-decoration="none" x="21.59814453125" y="601">Runnable</text></g></g><g transform="translate(-6,-22) scale(1,1)"><path fill="none" stroke="#000000" d="M 112 486 L 62.7099609375 562.217529296875" stroke-miterlimit="10"/></g><g transform="translate(-6,-22) scale(1,1)"><path fill="none" stroke="#000000" d="M 289 215 L 575 229" stroke-miterlimit="10"/></g><g transform="translate(-6,-22) scale(1,1)"><rect fill="#C0C0C0" stroke="none" x="175" y="183" width="119.93798828125" height="72" opacity="0.2"/></g><g transform="translate(-6,-22) scale(1,1)"><rect fill="#ffffff" stroke="none" x="168" y="176" width="119.93798828125" height="72"/></g><g transform="translate(-6,-22) scale(1,1)"><path fill="none" stroke="#000000" d="M 168 176 L 287.93798828125 176 L 287.93798828125 248 L 168 248 L 168 176 Z Z" stroke-miterlimit="10"/></g><g transform="translate(-6,-22) scale(1,1)"><path fill="none" stroke="#000000" d="M 168 201 L 287.93798828125 201" stroke-miterlimit="10"/></g><g transform="translate(-6,-22) scale(1,1)"><path fill="none" stroke="#000000" d="M 168 226 L 287.93798828125 226" stroke-miterlimit="10"/></g><g transform="translate(-6,-22) scale(1,1)"><g><path fill="none" stroke="none"/><text fill="#000000" stroke="none" font-family="Arial" font-size="13px" font-style="normal" font-weight="bold" text-decoration="none" x="203.041748046875" y="194">Ventana</text></g></g><g transform="translate(-6,-22) scale(1,1)"><g><path fill="none" stroke="none"/><text fill="#000000" stroke="none" font-family="Arial" font-size="13px" font-style="normal" font-weight="normal" text-decoration="none" x="173" y="219">-app: APP</text></g></g><g transform="translate(-6,-22) scale(1,1)"><g><path fill="none" stroke="none"/><text fill="#000000" stroke="none" font-family="Arial" font-size="13px" font-style="normal" font-weight="normal" text-decoration="none" x="173" y="242">+ponPanel(JPanel)</text></g></g><g transform="translate(-6,-22) scale(1,1)"><path fill="none" stroke="#000000" d="M 187 446 L 255 452" stroke-miterlimit="10"/></g><g transform="translate(-6,-22) scale(1,1)"><path fill="#000000" stroke="none" d="M 244.5066656631317 455.2999900749398 L 255 452 L 245.24664677330455 446.91353749298105 L 233.08514329944163 450.0663361734801"/></g><g transform="translate(-6,-22) scale(1,1)"><path fill="none" stroke="#000000" d="M 244.5066656631317 455.2999900749398 L 255 452 L 245.24664677330455 446.91353749298105 L 233.08514329944163 450.0663361734801 L 244.5066656631317 455.2999900749398" stroke-miterlimit="10"/></g><g transform="translate(-6,-22) scale(1,1)"><rect fill="#C0C0C0" stroke="none" x="23" y="319" width="50.919921875" height="44" opacity="0.2"/></g><g transform="translate(-6,-22) scale(1,1)"><rect fill="#ffffff" stroke="none" x="16" y="312" width="50.919921875" height="44"/></g><g transform="translate(-6,-22) scale(1,1)"><path fill="none" stroke="#000000" d="M 16 312 L 66.919921875 312 L 66.919921875 356 L 16 356 L 16 312 Z Z" stroke-miterlimit="10"/></g><g transform="translate(-6,-22) scale(1,1)"><path fill="none" stroke="#000000" d="M 16 337 L 66.919921875 337" stroke-miterlimit="10"/></g><g transform="translate(-6,-22) scale(1,1)"><path fill="none" stroke="#000000" d="M 16 347 L 66.919921875 347" stroke-miterlimit="10"/></g><g transform="translate(-6,-22) scale(1,1)"><g><path fill="none" stroke="none"/><text fill="#000000" stroke="none" font-family="Arial" font-size="13px" font-style="normal" font-weight="bold" text-decoration="none" x="20.503173828125" y="330">JPanel</text></g></g></g></svg>