<svg version="1.1" id="Layer_1" xmlns="http://www.w3.org/2000/svg" xmlns:xlink="http://www.w3.org/1999/xlink" x="0px" y="0px" viewBox="0 0 1200 1200" enable-background="new 0 0 1200 1200" xml:space="preserve">
<g>
	<path fill="#755890" d="M535.044,470.377c250.652-131.847,483.743-185.759,533.041-125.159l72.719-38.932&#10;&#9;&#9;c-52.795-68.248-322.923-2.654-615.348,151.165C224.539,615.738,13.972,807.502,55.142,885.77c0.241,0.458,0.497,0.905,0.754,1.353&#10;&#9;&#9;l76.899-41.17C96.151,774.62,275.989,606.643,535.044,470.377z" style="fill: rgb(0, 34, 77);"/>
	<g>
		<path fill="#F28963" d="M779.282,401.266l-370.577,15.58c-31.457,28.529-57.103,64.444-73.98,106.505&#10;&#9;&#9;&#9;c-5.401,13.461-9.705,27.088-12.981,40.784l540.349-62.6C842.716,462.811,814.659,428.315,779.282,401.266z" style="fill: rgb(240, 30, 73);"/>
		<path fill="#F24949" d="M711.107,362.527c-106.284-42.648-222.914-17.77-302.402,54.319l370.577-15.58&#10;&#9;&#9;&#9;C758.894,385.677,736.088,372.551,711.107,362.527z" style="fill: rgb(160, 21, 62);"/>
		<path fill="#755890" d="M495.548,899.733c99.995,40.124,209.146,20.477,287.911-42.021L466.13,885.97&#10;&#9;&#9;&#9;C475.57,891.037,485.372,895.65,495.548,899.733z" style="fill: rgb(0, 34, 77);"/>
		<path fill="#397EBC" d="M466.13,885.97l317.328-28.257c31.786-25.221,58.609-57.429,77.896-95.499l-481.33,53.108&#10;&#9;&#9;&#9;C403.342,843.642,432.322,867.821,466.13,885.97z" style="fill: rgb(160, 21, 62);"/>
		<path fill="#F2C849" d="M892.428,617.391l-247.876-22.231l233.578-54.767c-4.406-13.322-9.761-26.313-16.038-38.858l-540.349,62.6&#10;&#9;&#9;&#9;c-6.378,26.661-8.815,53.583-7.603,80.059l576.844,19.325C892.731,648.08,893.163,632.663,892.428,617.391z" style="fill: rgb(255, 255, 255);"/>
		<path fill="#76C58D" d="M314.14,644.193c2.871,62.71,26.178,122.903,65.885,171.128l481.33-53.108&#10;&#9;&#9;&#9;c3.822-7.545,7.367-15.307,10.576-23.304c9.939-24.769,16.191-50.1,19.053-75.392L314.14,644.193z" style="fill: rgb(93, 14, 65);"/>
		<path fill="#76C58D" d="M892.428,617.391c-1.269-26.35-6.112-52.251-14.298-76.998l-233.578,54.767L892.428,617.391z" style="fill: rgb(93, 14, 65);"/>
	</g>
	<g>
		<path fill="#755890" d="M1068.085,345.218c1.736,2.134,3.266,4.398,4.539,6.818c37.416,71.132-142.602,239.443-402.083,375.933&#10;&#9;&#9;&#9;S170.378,917.442,132.962,846.31c-0.061-0.117-0.107-0.24-0.167-0.357l-76.899,41.17c43.666,76.148,319.491,11.121,618.649-146.24&#10;&#9;&#9;&#9;c300.917-158.286,511.484-350.051,470.314-428.319c-1.162-2.209-2.521-4.297-4.054-6.279L1068.085,345.218z" style="fill: rgb(0, 34, 77);"/>
	</g>
</g>
</svg>